<svg width="53" height="46" viewBox="0 0 53 46" fill="none" xmlns="http://www.w3.org/2000/svg">
<path d="M19.9963 40.265C20.6724 40.265 21.2206 39.7835 21.2206 39.1896C21.2206 38.5957 20.6724 38.1143 19.9963 38.1143C19.3202 38.1143 18.772 38.5957 18.772 39.1896C18.772 39.7835 19.3202 40.265 19.9963 40.265Z" fill="#22262A" stroke="#22262A" stroke-width="1.53132" stroke-miterlimit="10" stroke-linecap="round" stroke-linejoin="round"/>
<path d="M37.136 40.265C37.8121 40.265 38.3603 39.7835 38.3603 39.1896C38.3603 38.5957 37.8121 38.1143 37.136 38.1143C36.4599 38.1143 35.9117 38.5957 35.9117 39.1896C35.9117 39.7835 36.4599 40.265 37.136 40.265Z" fill="#22262A" stroke="#22262A" stroke-width="1.53132" stroke-miterlimit="10" stroke-linecap="round" stroke-linejoin="round"/>
<path d="M6.52942 5.85303H11.4265L16.3235 31.6619H40.8088L45.7059 12.3052H13.875" stroke="#22262A" stroke-width="1.53132" stroke-linecap="round" stroke-linejoin="round"/>
</svg>
